<svg width="18" height="14" viewBox="0 0 18 14" fill="none" xmlns="http://www.w3.org/2000/svg">
<g clip-path="url(#clip0_74_7782)">
<path fill-rule="evenodd" clip-rule="evenodd" d="M1.04298 11.5402C0.790599 11.287 0.633698 10.9369 0.633698 10.5526C0.633698 7.22937 0.876182 6.76333 1.36814 5.819C1.4185 5.72118 1.47206 5.61869 1.52824 5.50598L0.518132 5.13689C0.268953 5.04578 0.0913834 4.81481 0.0270509 4.54996C-0.00584311 4.41331 -0.0102096 4.26526 0.0221022 4.12218C0.0549962 3.97472 0.125151 3.83164 0.238387 3.71163L0.25498 3.69586C0.457875 3.49233 0.784777 3.36064 1.26334 3.40123L2.31886 3.49146C2.49556 2.92206 2.68681 2.22096 2.89319 1.33678C2.97907 0.968568 3.14325 0.621671 3.38981 0.373178C3.62006 0.143081 3.91553 0 4.2794 0H13.7217C14.0856 0 14.3843 0.143957 14.6171 0.37493C14.8672 0.622547 15.0346 0.969152 15.1204 1.33678C15.3268 2.22009 15.5181 2.92089 15.6948 3.48971L16.7369 3.40123C17.2155 3.36064 17.543 3.49233 17.7461 3.69586L17.7619 3.71163C17.8757 3.83164 17.9458 3.97472 17.9787 4.12218C18.0102 4.26526 18.0067 4.4136 17.9738 4.54996C17.9094 4.81481 17.7319 5.04578 17.4827 5.13689L16.4802 5.50364C16.5363 5.61635 16.589 5.71884 16.6394 5.81637C17.1287 6.76246 17.3671 7.2244 17.3671 10.5526C17.3671 10.9357 17.2102 11.2853 16.9578 11.5384L16.957 11.5402C16.7046 11.7928 16.3562 11.9499 15.9734 11.9499H15.923V13.0466C15.923 13.3091 15.8156 13.5474 15.6441 13.7203C15.4724 13.8925 15.234 14 14.9731 14H13.9558C13.6941 14 13.4565 13.8923 13.2848 13.7203C13.1125 13.5474 13.005 13.3088 13.005 13.0466V11.9499H4.99463V13.0466C4.99463 13.3091 4.88808 13.5474 4.71575 13.7203C4.54343 13.8931 4.30647 14 4.04478 14H3.02739C2.76569 14 2.52816 13.8923 2.35641 13.7203C2.18408 13.5474 2.07754 13.3088 2.07754 13.0466V11.9499H2.02631C1.64351 11.9499 1.29449 11.7925 1.04269 11.5402H1.04298ZM13.7214 6.16736H4.27853C4.1944 6.16736 4.10853 6.15334 4.02615 6.12852L4.02207 6.12765C3.86604 6.08034 3.71991 5.99274 3.61191 5.8809C3.49897 5.76264 3.42619 5.61694 3.42619 5.45867C3.42619 5.40903 3.43289 5.35851 3.44861 5.30712L4.35538 2.2487C4.41738 2.03934 4.50733 1.8399 4.63745 1.69069C4.77427 1.53505 4.95271 1.43489 5.18529 1.43489H12.8147C13.026 1.43489 13.1916 1.51695 13.3229 1.64835L13.3279 1.65331C13.4772 1.80574 13.5779 2.02152 13.6446 2.24841L14.5513 5.30683C14.5662 5.35735 14.5738 5.40786 14.5738 5.45575C14.5738 5.6146 14.5013 5.76118 14.3872 5.87857C14.2774 5.99274 14.129 6.08151 13.9712 6.12852C13.8888 6.15247 13.8044 6.16648 13.7211 6.16648L13.7214 6.16736ZM5.41875 8.89728C5.41875 9.24418 5.27845 9.55866 5.05168 9.78613C4.82492 10.0136 4.51111 10.1543 4.16558 10.1543C3.82005 10.1543 3.50537 10.0136 3.27948 9.78613C3.05242 9.55837 2.91241 9.24388 2.91241 8.89728C2.91241 8.55067 3.05272 8.23502 3.27948 8.00843C3.50566 7.78096 3.81918 7.64021 4.16558 7.64021C4.51199 7.64021 4.82492 7.78096 5.05168 8.00843C5.27874 8.23531 5.41875 8.5498 5.41875 8.89728ZM12.5821 8.89728C12.5821 8.5495 12.7224 8.23502 12.9492 8.00843L12.9532 8.00346C13.1803 7.77833 13.492 7.64021 13.8352 7.64021C14.1785 7.64021 14.4946 7.78096 14.7213 8.00843C14.9481 8.23531 15.0884 8.5498 15.0884 8.89728C15.0884 9.24476 14.9481 9.55866 14.7213 9.78613C14.4943 10.0136 14.1808 10.1543 13.8352 10.1543C13.4897 10.1543 13.175 10.0136 12.9492 9.78613C12.7221 9.55837 12.5821 9.24388 12.5821 8.89728Z" fill="#302DD7"/>
</g>
<defs>
<clipPath id="clip0_74_7782">
<rect width="18" height="14" fill="white"/>
</clipPath>
</defs>
</svg>
