<svg width="132" height="20" viewBox="0 0 132 20" fill="none" xmlns="http://www.w3.org/2000/svg">
<path d="M27.8768 6.08245C27.4565 5.79082 26.96 5.58208 26.3844 5.46236C25.8118 5.34264 25.1996 5.28125 24.5478 5.28125C22.5498 5.28125 21.5477 5.77854 21.5477 6.77927C21.5477 6.94197 21.5751 7.08931 21.633 7.22745C21.6909 7.36559 21.7518 7.48838 21.8188 7.59889C21.8858 7.70939 21.9528 7.79535 22.0198 7.86595C22.0868 7.93348 22.1325 7.97953 22.1538 8.00409C22.1995 7.97032 22.2757 7.92427 22.3883 7.86595C22.501 7.80763 22.6503 7.75237 22.8361 7.69405C23.0219 7.63572 23.2442 7.58661 23.5092 7.5467C23.7742 7.50679 24.0787 7.48531 24.429 7.48531C25.1691 7.48531 25.7021 7.60195 26.0219 7.82911C26.3417 8.05934 26.5032 8.37552 26.5032 8.77459C26.3448 8.7531 26.1468 8.73468 25.9062 8.7224C25.6656 8.71012 25.364 8.70398 25.0046 8.70398C23.5671 8.70398 22.5163 8.93114 21.8523 9.38239C21.1883 9.83671 20.8594 10.5919 20.8594 11.6478C20.8594 12.0377 20.9264 12.4091 21.0604 12.7591C21.1944 13.109 21.432 13.416 21.767 13.68C22.1051 13.944 22.5528 14.1527 23.1163 14.3062C23.6767 14.4628 24.3864 14.5395 25.2392 14.5395C25.7448 14.5395 26.226 14.5272 26.6798 14.5057C27.1336 14.4812 27.5387 14.4536 27.892 14.4198C28.2453 14.386 28.5408 14.3523 28.7753 14.3246C29.0129 14.297 29.1621 14.2694 29.2291 14.2479V9.05086C29.2291 8.32948 29.1073 7.72474 28.8667 7.2428C28.6261 6.76085 28.2941 6.37407 27.8737 6.08245M26.5184 12.4951C26.4392 12.5166 26.2778 12.5381 26.0311 12.5565C25.7844 12.5718 25.5133 12.581 25.2209 12.581C24.8493 12.581 24.5539 12.5503 24.3285 12.4859C24.1031 12.4245 23.9356 12.3447 23.8229 12.2526C23.7102 12.1605 23.6371 12.0561 23.6036 11.9425C23.5701 11.829 23.5518 11.7184 23.5518 11.6141C23.5518 11.4759 23.5762 11.3439 23.6188 11.2181C23.6645 11.0922 23.7468 10.9786 23.8625 10.8835C23.9813 10.7852 24.1457 10.7085 24.3589 10.6502C24.5722 10.5919 24.8463 10.5642 25.1843 10.5642C25.5773 10.5642 25.8727 10.5734 26.0707 10.5888C26.2656 10.6072 26.4148 10.6256 26.5184 10.6502V12.492V12.4951Z" fill="#302ED1"/>
<path d="M37.2249 5.98728C37.0573 5.81538 36.7832 5.65576 36.4086 5.50534C36.0309 5.35492 35.507 5.28125 34.8339 5.28125C34.2827 5.28125 33.7771 5.35799 33.3172 5.51455C32.8572 5.6711 32.4613 5.89519 32.1384 6.19603C31.8125 6.49379 31.5567 6.86215 31.3709 7.29805C31.1851 7.73395 31.0938 8.23432 31.0938 8.79607V14.3062H33.8075V9.40081C33.8075 8.81756 33.9568 8.39701 34.2552 8.14529C34.5537 7.89358 34.9162 7.76772 35.3426 7.76772C35.6685 7.76772 35.967 7.80763 36.235 7.88744C36.503 7.96725 36.7345 8.0532 36.9264 8.14529C36.9599 8.11153 37.0117 8.0532 37.0787 7.97339C37.1457 7.89358 37.2157 7.79535 37.2888 7.68177C37.3619 7.56819 37.4228 7.43619 37.4746 7.28577C37.5264 7.13843 37.5508 6.97573 37.5508 6.80383C37.5508 6.63192 37.5233 6.48151 37.4655 6.35565C37.4106 6.22979 37.3315 6.11007 37.2309 5.99342" fill="#302ED1"/>
<path d="M43.6265 9.54319C43.8276 9.37129 44.0895 9.15641 44.4093 8.89855C44.7291 8.6407 45.0611 8.37363 45.4022 8.09122C45.7433 7.81187 46.0753 7.52946 46.3951 7.24091C46.7149 6.95542 46.983 6.69757 47.1962 6.46734C47.1505 6.38752 47.0774 6.29236 46.9769 6.18185C46.8764 6.07441 46.7515 5.97004 46.6053 5.87181C46.4591 5.77358 46.2916 5.6907 46.0997 5.62317C45.9078 5.55563 45.7007 5.51879 45.4753 5.51879C45.2499 5.51879 45.0611 5.53414 44.9027 5.57098C44.7443 5.60475 44.5951 5.65693 44.455 5.72754C44.3149 5.79507 44.1809 5.88716 44.0499 5.9946C43.9189 6.10511 43.7727 6.23404 43.6022 6.38139C43.4773 6.49496 43.3189 6.63617 43.1209 6.80194C42.926 6.9677 42.7159 7.14574 42.4966 7.333C42.2773 7.52025 42.0519 7.71057 41.8235 7.89782C41.592 8.08815 41.3757 8.26619 41.1747 8.43809V1.87504C41.1077 1.85049 40.9493 1.80444 40.7026 1.73077C40.4559 1.65709 40.1818 1.61719 39.8772 1.61719C39.4508 1.61719 39.1066 1.70928 38.8477 1.89346C38.5889 2.07764 38.4609 2.39076 38.4609 2.83893V14.3043H41.1747V10.8171C41.4001 11.0474 41.6468 11.2991 41.9148 11.5692C42.1859 11.8393 42.46 12.1248 42.7402 12.4226C43.0204 12.7203 43.2976 13.0304 43.5656 13.3527C43.8367 13.675 44.0834 13.9912 44.3057 14.3012H47.6591C47.0865 13.4387 46.4439 12.5914 45.7312 11.7565C45.0185 10.9215 44.3118 10.1848 43.6174 9.54012" fill="#302ED1"/>
<path d="M50.0298 1.61719C49.6034 1.61719 49.247 1.7676 48.9607 2.06537C48.6744 2.36313 48.5312 2.73149 48.5312 3.16739C48.5312 3.60329 48.6744 3.96859 48.9607 4.26021C49.247 4.55184 49.6034 4.69918 50.0298 4.69918C50.4562 4.69918 50.8156 4.55184 51.108 4.26021C51.4004 3.96859 51.5466 3.60329 51.5466 3.16739C51.5466 2.73149 51.4004 2.36313 51.108 2.06537C50.8156 1.7676 50.4562 1.61719 50.0298 1.61719Z" fill="#302ED1"/>
<path d="M50.096 5.52734C49.6696 5.52734 49.3254 5.61944 49.0665 5.80362C48.8076 5.9878 48.6797 6.30398 48.6797 6.75216V14.3098H51.3935V5.78827C51.3265 5.76371 51.1681 5.71767 50.9214 5.64092C50.6747 5.56725 50.3975 5.53041 50.096 5.53041" fill="#302ED1"/>
<path d="M60.4001 6.23063C60.0133 5.92059 59.5564 5.68422 59.0356 5.52459C58.5118 5.36497 57.9605 5.28516 57.3757 5.28516C56.7909 5.28516 56.2244 5.36497 55.7066 5.52459C55.1888 5.68422 54.735 5.92059 54.3421 6.23063C53.9492 6.54067 53.6385 6.92745 53.4162 7.39098C53.1908 7.85758 53.0781 8.38557 53.0781 8.98416V14.304H55.7919V9.62266C55.7919 8.42854 56.3188 7.83302 57.3757 7.83302C57.8813 7.83302 58.2681 7.98037 58.5392 8.27199C58.8102 8.56361 58.9442 9.01486 58.9442 9.62266V14.304H61.658V8.98416C61.658 8.38864 61.5453 7.85758 61.3199 7.39098C61.0946 6.92745 60.79 6.54067 60.4001 6.23063Z" fill="#302ED1"/>
<path d="M71.6817 7.04103C71.2553 6.467 70.7132 6.0311 70.0553 5.73333C69.3974 5.43557 68.6816 5.28516 67.908 5.28516C67.2105 5.28516 66.574 5.39567 65.9953 5.61976C65.4166 5.84384 64.9201 6.15696 64.5029 6.55602C64.0856 6.95815 63.7597 7.43703 63.5252 7.99265C63.2907 8.55133 63.1719 9.16528 63.1719 9.84368C63.1719 10.5221 63.2724 11.1268 63.4765 11.661C63.6775 12.1951 63.9638 12.6463 64.3354 13.0116C64.7069 13.38 65.1486 13.6563 65.6572 13.8466C66.1689 14.0369 66.7263 14.1321 67.3324 14.1321C67.6826 14.1321 67.9963 14.0922 68.2766 14.0124C68.5568 13.9325 68.8004 13.8405 69.0106 13.7361C69.2177 13.6317 69.3883 13.5304 69.5162 13.426C69.6441 13.3217 69.7385 13.2419 69.7933 13.1866V13.3769C69.7933 13.8128 69.7324 14.1781 69.6076 14.4697C69.4827 14.7614 69.3121 15.0039 69.0928 15.1942C68.8735 15.3845 68.6085 15.5196 68.3009 15.5994C67.9903 15.6792 67.6583 15.7191 67.2989 15.7191C66.9395 15.7191 66.6044 15.6946 66.2968 15.6424C65.9892 15.5902 65.7181 15.5349 65.4897 15.4705C65.2582 15.406 65.0724 15.3477 64.9262 15.2894C64.78 15.231 64.6917 15.1911 64.6552 15.1696L63.915 17.1496C63.982 17.1957 64.1191 17.2632 64.3262 17.3491C64.5333 17.4351 64.7983 17.521 65.1181 17.607C65.4379 17.6929 65.8065 17.7666 66.2207 17.8311C66.6349 17.8955 67.0918 17.9262 67.5852 17.9262C68.2918 17.9262 68.9466 17.8249 69.5466 17.6254C70.1467 17.4259 70.6675 17.1158 71.1061 16.6953C71.5447 16.2778 71.8858 15.7437 72.1355 15.096C72.3822 14.4483 72.5071 13.6747 72.5071 12.7814V10.2151C72.5071 9.4569 72.4371 8.83068 72.297 8.33952C72.1569 7.8453 71.9528 7.41554 71.6817 7.04717M69.2482 11.265C68.8827 11.621 68.4258 11.7991 67.8745 11.7991C67.3232 11.7991 66.8511 11.6395 66.4917 11.3171C66.1323 10.9948 65.9526 10.5067 65.9526 9.85289C65.9526 9.57662 66.0014 9.31876 66.0958 9.07932C66.1902 8.83989 66.3242 8.62501 66.4917 8.44082C66.6593 8.25664 66.8603 8.11543 67.0979 8.01106C67.3324 7.90669 67.5913 7.85451 67.8745 7.85451C68.4258 7.85451 68.8827 8.04176 69.2482 8.4132C69.6136 8.7877 69.7964 9.26658 69.7964 9.84982C69.7964 10.4331 69.6136 10.9058 69.2482 11.2619" fill="#302ED1"/>
<path d="M81.2674 6.08245C80.8471 5.79082 80.3506 5.58208 79.775 5.46236C79.2024 5.34264 78.5902 5.28125 77.9384 5.28125C75.9404 5.28125 74.9383 5.77854 74.9383 6.77927C74.9383 6.94197 74.9658 7.08931 75.0236 7.22745C75.0784 7.36559 75.1424 7.48838 75.2094 7.59889C75.2764 7.70939 75.3434 7.79535 75.4104 7.86595C75.4774 7.93348 75.5231 7.97953 75.5444 8.00409C75.5901 7.97032 75.6693 7.92427 75.782 7.86595C75.8947 7.80763 76.044 7.75237 76.2297 7.69405C76.4155 7.63572 76.6409 7.58661 76.9029 7.5467C77.1678 7.50679 77.4724 7.48531 77.8227 7.48531C78.5628 7.48531 79.0958 7.60195 79.4156 7.82911C79.7354 8.05934 79.8968 8.37552 79.8968 8.77459C79.7384 8.7531 79.5405 8.73468 79.2968 8.7224C79.0562 8.71012 78.7547 8.70398 78.3953 8.70398C76.9577 8.70398 75.9069 8.93114 75.2429 9.38239C74.5789 9.83671 74.25 10.5919 74.25 11.6478C74.25 12.0377 74.317 12.4091 74.451 12.7591C74.585 13.109 74.8226 13.416 75.1576 13.68C75.4957 13.944 75.9434 14.1527 76.5069 14.3062C77.0673 14.4628 77.777 14.5395 78.6298 14.5395C79.1354 14.5395 79.6166 14.5272 80.0704 14.5057C80.5243 14.4812 80.9293 14.4536 81.2827 14.4198C81.636 14.386 81.9314 14.3523 82.1659 14.3246C82.4035 14.297 82.5527 14.2694 82.6197 14.2479V9.05086C82.6197 8.32948 82.4979 7.72474 82.2573 7.2428C82.0167 6.76085 81.6847 6.37407 81.2644 6.08245M79.909 12.4951C79.8298 12.5166 79.6684 12.5381 79.4217 12.5565C79.175 12.5718 78.9039 12.581 78.6115 12.581C78.2399 12.581 77.9415 12.5503 77.7191 12.4859C77.4937 12.4245 77.3262 12.3447 77.2135 12.2526C77.1008 12.1605 77.0277 12.0561 76.9942 11.9425C76.9607 11.829 76.9425 11.7184 76.9425 11.6141C76.9425 11.4759 76.9638 11.3439 77.0095 11.2181C77.0551 11.0922 77.1374 10.9786 77.2531 10.8835C77.3719 10.7852 77.5364 10.7085 77.7496 10.6502C77.9628 10.5919 78.2369 10.5642 78.575 10.5642C78.9679 10.5642 79.2633 10.5734 79.4613 10.5888C79.6562 10.6072 79.8055 10.6256 79.909 10.6502V12.492V12.4951Z" fill="#302ED1"/>
<path d="M90.6155 5.98728C90.448 5.81538 90.1738 5.65576 89.7992 5.50534C89.4215 5.35492 88.8977 5.28125 88.2246 5.28125C87.6733 5.28125 87.1677 5.35799 86.7078 5.51455C86.2479 5.6711 85.855 5.89519 85.5291 6.19603C85.2032 6.49379 84.9473 6.86215 84.7615 7.29805C84.5757 7.73395 84.4844 8.23432 84.4844 8.79607V14.3062H87.1981V9.40081C87.1981 8.81756 87.3474 8.39701 87.6459 8.14529C87.9444 7.89358 88.3068 7.76772 88.7332 7.76772C89.0591 7.76772 89.3576 7.80763 89.6256 7.88744C89.8967 7.96725 90.1251 8.0532 90.317 8.14529C90.3505 8.11153 90.4023 8.0532 90.4693 7.97339C90.5363 7.89358 90.6063 7.79535 90.6794 7.68177C90.7525 7.56819 90.8134 7.43619 90.8652 7.28577C90.917 7.13843 90.9414 6.97573 90.9414 6.80383C90.9414 6.63192 90.914 6.48151 90.8561 6.35565C90.8013 6.22979 90.7221 6.11007 90.6216 5.99342" fill="#302ED1"/>
<path d="M99.4685 6.60737C99.036 6.19296 98.5304 5.87064 97.9517 5.63427C97.373 5.40097 96.7578 5.28125 96.106 5.28125C95.4542 5.28125 94.8268 5.3979 94.2511 5.63427C93.6785 5.87064 93.176 6.19296 92.7435 6.60737C92.311 7.02178 91.9699 7.50679 91.7231 8.07162C91.4764 8.63338 91.3516 9.24732 91.3516 9.91345C91.3516 10.5796 91.4764 11.1935 91.7231 11.7553C91.9699 12.317 92.311 12.8051 92.7435 13.2195C93.176 13.6339 93.6785 13.9563 94.2511 14.1926C94.8237 14.429 95.442 14.5456 96.106 14.5456C96.77 14.5456 97.373 14.429 97.9517 14.1926C98.5304 13.9563 99.036 13.6339 99.4685 13.2195C99.901 12.8051 100.239 12.3201 100.489 11.7553C100.736 11.1935 100.86 10.5796 100.86 9.91345C100.86 9.24732 100.736 8.63338 100.489 8.07162C100.242 7.50986 99.901 7.02178 99.4685 6.60737ZM97.9365 10.773C97.839 11.037 97.702 11.2641 97.5223 11.4544C97.3426 11.6417 97.1324 11.7921 96.8887 11.9026C96.6481 12.0131 96.3862 12.0653 96.106 12.0653C95.8258 12.0653 95.5486 12.0101 95.3141 11.9026C95.0765 11.7952 94.8694 11.6448 94.6897 11.4544C94.51 11.2641 94.373 11.037 94.2755 10.773C94.1811 10.509 94.1323 10.2235 94.1323 9.91345C94.1323 9.60341 94.1811 9.31793 94.2755 9.05393C94.3699 8.78993 94.51 8.56278 94.6897 8.37245C94.8694 8.18213 95.0765 8.03478 95.3141 7.92427C95.5486 7.81377 95.8136 7.76158 96.106 7.76158C96.3984 7.76158 96.6481 7.81683 96.8887 7.92427C97.1294 8.03478 97.3426 8.18213 97.5223 8.37245C97.702 8.56278 97.839 8.78993 97.9365 9.05393C98.0309 9.31793 98.0796 9.60341 98.0796 9.91345C98.0796 10.2235 98.0309 10.512 97.9365 10.773Z" fill="#302ED1"/>
<path d="M109.673 5.52734C109.246 5.52734 108.902 5.61944 108.643 5.80362C108.384 5.9878 108.256 6.30398 108.256 6.75216V10.2117C108.256 11.4058 107.729 12.0014 106.673 12.0014C105.616 12.0014 105.089 11.4058 105.089 10.2117V5.78827C105.022 5.76371 104.863 5.71767 104.617 5.64092C104.37 5.56725 104.093 5.53041 103.791 5.53041C103.365 5.53041 103.021 5.6225 102.762 5.80669C102.503 5.99087 102.375 6.30705 102.375 6.75523V10.7305C102.375 11.3721 102.485 11.9338 102.704 12.4096C102.923 12.8854 103.225 13.2814 103.605 13.5976C103.986 13.9138 104.443 14.1532 104.97 14.3129C105.497 14.4725 106.066 14.5523 106.673 14.5523C107.279 14.5523 107.845 14.4725 108.375 14.3129C108.902 14.1532 109.359 13.9138 109.74 13.5976C110.123 13.2814 110.422 12.8854 110.641 12.4096C110.86 11.9338 110.97 11.3721 110.97 10.7305V5.79134C110.903 5.76678 110.745 5.72074 110.498 5.64399C110.251 5.57032 109.974 5.53348 109.673 5.53348" fill="#302ED1"/>
<path d="M119.893 6.23063C119.506 5.92059 119.049 5.68422 118.529 5.52459C118.008 5.36497 117.454 5.28516 116.869 5.28516C116.284 5.28516 115.717 5.36497 115.2 5.52459C114.682 5.68422 114.228 5.92059 113.835 6.23063C113.442 6.54067 113.132 6.92745 112.909 7.39098C112.684 7.85758 112.574 8.38557 112.574 8.98416V14.304H115.288V9.62266C115.288 8.42854 115.815 7.83302 116.872 7.83302C117.377 7.83302 117.764 7.98037 118.035 8.27199C118.306 8.56361 118.44 9.01486 118.44 9.62266V14.304H121.154V8.98416C121.154 8.38864 121.041 7.85758 120.816 7.39098C120.591 6.92745 120.286 6.54067 119.896 6.23063" fill="#302ED1"/>
<path d="M131.536 1.7316C131.296 1.65793 131.022 1.62109 130.72 1.62109C130.294 1.62109 129.95 1.71319 129.691 1.89737C129.432 2.08155 129.304 2.39773 129.304 2.84284V6.23487C129.103 6.0292 128.795 5.81739 128.384 5.60558C127.973 5.39377 127.455 5.28633 126.825 5.28633C126.252 5.28633 125.713 5.39684 125.207 5.62093C124.702 5.84502 124.26 6.15813 123.885 6.56026C123.511 6.9624 123.212 7.44741 122.993 8.01531C122.774 8.58321 122.664 9.21864 122.664 9.91853C122.664 10.6184 122.783 11.2385 123.017 11.8125C123.255 12.3866 123.581 12.8747 123.995 13.2768C124.409 13.6789 124.903 13.992 125.469 14.2131C126.036 14.4372 126.651 14.5477 127.315 14.5477C128.122 14.5477 128.859 14.3972 129.523 14.0995C130.184 13.8017 130.729 13.3658 131.156 12.7918C131.427 12.4234 131.634 11.9722 131.78 11.4319C131.926 10.8916 131.999 10.2562 131.999 9.52254V1.87588C131.932 1.85132 131.777 1.80528 131.536 1.72853M128.774 11.4473C128.408 11.8156 127.945 11.9967 127.385 11.9967C126.825 11.9967 126.359 11.8064 125.993 11.4288C125.628 11.0513 125.445 10.5509 125.445 9.93081C125.445 9.31073 125.628 8.80423 125.993 8.40823C126.359 8.01224 126.822 7.81578 127.385 7.81578C127.665 7.81578 127.924 7.87103 128.159 7.97847C128.393 8.08898 128.6 8.23633 128.774 8.42665C128.947 8.61697 129.081 8.84106 129.179 9.09892C129.273 9.35677 129.322 9.63612 129.322 9.93388C129.322 10.5755 129.139 11.082 128.774 11.4473Z" fill="#302ED1"/>
<path d="M9.58804 0C4.30061 0 0 4.39583 0 9.79546C0 15.1951 4.30061 19.5909 9.58804 19.5909C14.8755 19.5909 19.1761 15.1951 19.1761 9.79546C19.1761 4.39583 14.8755 0 9.58804 0ZM9.58804 17.0185C8.92102 17.0185 8.27836 16.9233 7.66617 16.7453V13.1998C7.86719 13.4054 8.17481 13.6111 8.58599 13.8106C8.99412 14.0102 9.51494 14.1115 10.1454 14.1115C10.718 14.1115 11.2571 14.001 11.7627 13.783C12.2683 13.5651 12.7099 13.255 13.0846 12.8529C13.4592 12.4508 13.7577 11.9688 13.977 11.4071C14.1963 10.8453 14.3059 10.2129 14.3059 9.51305C14.3059 8.81315 14.1871 8.19307 13.9526 7.61903C13.715 7.045 13.3891 6.55691 12.9749 6.15478C12.5607 5.75265 12.0673 5.43953 11.5008 5.21545C10.9343 4.99136 10.319 4.88085 9.65505 4.88085C8.84487 4.88085 8.11085 5.03126 7.44687 5.32903C6.7829 5.62679 6.23771 6.06269 5.8113 6.63672C5.54328 7.00509 5.33312 7.45634 5.18692 7.99661C5.04073 8.53688 4.96763 9.17231 4.96763 9.90904V15.2565C3.46607 13.9304 2.51275 11.9719 2.51275 9.78932C2.51275 5.80483 5.68643 2.56628 9.58499 2.56628C13.4836 2.56628 16.6572 5.8079 16.6572 9.78932C16.6572 13.7707 13.4836 17.0154 9.58499 17.0154M7.64789 9.49463C7.64789 8.85306 7.83064 8.34655 8.19613 7.97819C8.56162 7.60982 9.02457 7.42871 9.58804 7.42871C10.1515 7.42871 10.6145 7.61903 10.9799 7.99661C11.3454 8.37418 11.5282 8.87455 11.5282 9.49463C11.5282 10.1147 11.3454 10.6212 10.9799 11.0172C10.6145 11.4132 10.1515 11.6097 9.58804 11.6097C9.30783 11.6097 9.04894 11.5544 8.81442 11.447C8.57989 11.3395 8.37278 11.1891 8.19917 10.9988C8.02557 10.8085 7.89155 10.5844 7.79409 10.3265C7.69967 10.0687 7.65094 9.78932 7.65094 9.49156" fill="#302ED1"/>
</svg>
