<svg width="20" height="20" viewBox="0 0 20 20" fill="none" xmlns="http://www.w3.org/2000/svg">
<path d="M9.58804 0C4.30061 0 0 4.39583 0 9.79546C0 15.1951 4.30061 19.5909 9.58804 19.5909C14.8755 19.5909 19.1761 15.1951 19.1761 9.79546C19.1761 4.39583 14.8755 0 9.58804 0ZM9.58804 17.0185C8.92102 17.0185 8.27836 16.9233 7.66617 16.7453V13.1998C7.86719 13.4054 8.17481 13.6111 8.58599 13.8106C8.99412 14.0102 9.51494 14.1115 10.1454 14.1115C10.718 14.1115 11.2571 14.001 11.7627 13.783C12.2683 13.5651 12.7099 13.255 13.0846 12.8529C13.4592 12.4508 13.7577 11.9688 13.977 11.4071C14.1963 10.8453 14.3059 10.2129 14.3059 9.51305C14.3059 8.81315 14.1871 8.19307 13.9526 7.61903C13.715 7.045 13.3891 6.55691 12.9749 6.15478C12.5607 5.75265 12.0673 5.43953 11.5008 5.21545C10.9343 4.99136 10.319 4.88085 9.65505 4.88085C8.84487 4.88085 8.11085 5.03126 7.44687 5.32903C6.7829 5.62679 6.23771 6.06269 5.8113 6.63672C5.54328 7.00509 5.33312 7.45634 5.18692 7.99661C5.04073 8.53688 4.96763 9.17231 4.96763 9.90904V15.2565C3.46607 13.9304 2.51275 11.9719 2.51275 9.78932C2.51275 5.80483 5.68643 2.56628 9.58499 2.56628C13.4836 2.56628 16.6572 5.8079 16.6572 9.78932C16.6572 13.7707 13.4836 17.0154 9.58499 17.0154M7.64789 9.49463C7.64789 8.85306 7.83064 8.34655 8.19613 7.97819C8.56162 7.60982 9.02457 7.42871 9.58804 7.42871C10.1515 7.42871 10.6145 7.61903 10.9799 7.99661C11.3454 8.37418 11.5282 8.87455 11.5282 9.49463C11.5282 10.1147 11.3454 10.6212 10.9799 11.0172C10.6145 11.4132 10.1515 11.6097 9.58804 11.6097C9.30783 11.6097 9.04894 11.5544 8.81442 11.447C8.57989 11.3395 8.37278 11.1891 8.19917 10.9988C8.02557 10.8085 7.89155 10.5844 7.79409 10.3265C7.69967 10.0687 7.65094 9.78932 7.65094 9.49156" fill="#302ED1"/>
</svg>
