<svg width="17" height="17" viewBox="0 0 17 17" fill="none" xmlns="http://www.w3.org/2000/svg">
<path d="M2.12494 2.65626V0.531315C2.12494 0.237702 2.36265 0 2.65626 0C2.94987 0 3.18757 0.237702 3.18757 0.531315V2.65626C3.18757 2.94987 2.94987 3.18757 2.65626 3.18757C2.36265 3.18757 2.12494 2.94987 2.12494 2.65626ZM11.1562 3.18757C11.4498 3.18757 11.6875 2.94987 11.6875 2.65626V0.531315C11.6875 0.237702 11.4498 0 11.1562 0C10.8626 0 10.6249 0.237702 10.6249 0.531315V2.65626C10.6249 2.94987 10.8626 3.18757 11.1562 3.18757ZM17 12.7499C17 15.097 15.097 17 12.7499 17C10.4028 17 8.50003 15.097 8.50003 12.7499C8.50003 10.4028 10.403 8.50003 12.7499 8.50003C15.0968 8.50003 17 10.403 17 12.7499ZM15.9374 12.7499C15.9374 10.9922 14.5076 9.56241 12.7499 9.56241C10.9922 9.56241 9.56241 10.9924 9.56241 12.7499C9.56241 14.5075 10.9924 15.9374 12.7499 15.9374C14.5075 15.9374 15.9374 14.5076 15.9374 12.7499ZM4.24995 6.37509H2.12501V8.50003H4.24995V6.37509ZM2.12501 11.6875H4.24995V9.56241H2.12501V11.6875ZM5.31252 8.50003H7.43746V6.37509H5.31252V8.50003ZM5.31252 11.6875H7.43746V9.56241H5.31252V11.6875ZM1.06263 12.6442V5.31252H12.7499V7.43746H13.8125V3.29344C13.8125 2.64804 13.2977 2.12501 12.6617 2.12501H12.2186V2.65632C12.2186 3.2416 11.7424 3.71889 11.1562 3.71889C10.57 3.71889 10.0937 3.2416 10.0937 2.65632V2.12501H3.71883V2.65632C3.71883 3.2416 3.24248 3.71889 2.65626 3.71889C2.07004 3.71889 1.59369 3.2416 1.59369 2.65632V2.12501H1.15123C0.51525 2.12501 0 2.64804 0 3.29344V12.6442C0 13.2875 0.51525 13.8125 1.15123 13.8125H7.4374V12.7499H1.15123C1.10292 12.7499 1.06263 12.7002 1.06263 12.6442ZM10.625 8.50003V6.37509H8.50003V8.50003H10.625ZM14.3438 12.7499H12.7499V11.1563C12.7499 10.8627 12.5124 10.625 12.2186 10.625C11.9248 10.625 11.6875 10.8627 11.6875 11.1563V13.2812C11.6875 13.5748 11.9251 13.8126 12.2186 13.8126H14.3437C14.6374 13.8126 14.8748 13.5748 14.8748 13.2812C14.8748 12.9876 14.6374 12.7499 14.3438 12.7499Z" fill="#302DD7"/>
</svg>
