<svg width="15" height="19" viewBox="0 0 15 19" fill="none" xmlns="http://www.w3.org/2000/svg">
<path d="M12.0908 0.863281C13.5217 0.863281 14.6816 2.02322 14.6816 3.4541V15.5449C14.6816 16.9758 13.5217 18.1357 12.0908 18.1357H2.59082C1.15994 18.1357 0 16.9758 0 15.5449V3.4541C4.83675e-05 2.02325 1.15997 0.863329 2.59082 0.863281H12.0908ZM4.43359 4.8125V14.999H6.30469V10.79H7.79492C8.92508 10.79 9.78748 10.5319 10.3818 10.0156C10.9762 9.49921 11.2734 8.74875 11.2734 7.76465C11.2734 6.78063 10.9811 6.04477 10.3965 5.55762C9.81187 5.06083 8.94451 4.8125 7.79492 4.8125H4.43359ZM7.60547 6.50781C8.19966 6.50785 8.64329 6.60497 8.93555 6.7998C9.23749 6.98493 9.38864 7.31174 9.38867 7.7793C9.38867 8.2664 9.2326 8.61276 8.9209 8.81738C8.60917 9.01222 8.17043 9.10934 7.60547 9.10938H6.30469V6.50781H7.60547Z" fill="#302DD7"/>
</svg>
